<svg xmlns="http://www.w3.org/2000/svg" class="wordmark" viewBox="0 0 10948 2500" fill="#9146ff">
  <polygon
    points="596 840 595.8 319.1 0 319.1 0 1883 297.9 2180.9 1117 2181 1117 1585 596 1585 596 1436 1117 1436 1117 840 596 840" />
  <polygon
    points="2755 840 2755 1585 2606 1585 2606 840 2011 840 2011 1585 1862 1585 1862 840 1266 840 1266 1883 1563.9 2180.9 3351 2181 3351 840 2755 840" />
  <polygon points="3500 840 4096 840 4096 2180.9 3500.2 2180.9 3500 840" />
  <polygon points="3500.2 319.1 4096 319.1 4096 692 3500 692 3500.2 319.1" />
  <polygon
    points="5809 840 5511 1138.3 5511 1883 5808.9 2180.9 6703 2181 6703 1585 6107 1585 6107 1436 6703 1436 6703 840 5809 840" />
  <polygon
    points="7894 840 7448 840 7448 319 6852 319 6852 2181 7447 2181 7447 1436 7596 1436 7596 2181 8192 2180.9 8192 1138.3 7894 840" />
  <polygon
    points="4841 840 4840.7 319.1 4245 319 4245 1883 4542.8 2180.9 5362 2180.9 5362 1585.1 4841 1585 4841 1436 5362 1436 5362 840 4841 840" />
  <polygon
    points="10352.2 319.1 10948 319.1 10948 1883 10650.1 2180.9 9831 2181 9831 1585 10352 1585 10352 915 9831 915 9831 319 10352.2 319.1" />
  <polygon
    points="8639 1660 9085 1660 9085 2181 9681 2181 9681 319 9086 319 9086 1064 8937 1064 8937 319 8341 319.1 8341 1361.7 8639 1660" />
  </svg>
