<svg xmlns="http://www.w3.org/2000/svg" viewBox="0 0 10019 9453">
  <path fill="#fa2828"
    d="M4739.93 1740L4427.5 2913.5h599L5339.93 1740h-600zM3839.93 2140l-205.43 773.5h599l206.43-773.5h-600z" />
  <path d="M5340 7713H2940c-662.74 0-1200-537.26-1200-1200V3013h4800v3500c0 662.74-537.26 1200-1200 1200z"
    fill="#9146ff" />
  <path fill="#fff" d="M5140.5 5513.5l-400 400h-400l-350 350v-350h-450v-1500h1600v1100z" />
  <path
    d="M3440.5 4213.5l-500 500v1800h600v500l500-500h400l900-900v-1400zm1700 1300l-400 400h-400l-350 350v-350h-450v-1500h1600z" />
  <path
    d="M4640.5 4763.5h200v600h-200zM4090.5 4763.5h200v600h-200zM8279.7 3613.13v2435.74l-463.97 463.97L6540 6513v-928.26h811.45l.73-1043.48h-811.45V3613l1738.97.13z" />
</svg>
